<svg width="68" height="68" viewBox="0 0 68 68" fill="none" xmlns="http://www.w3.org/2000/svg">
<g id="Group 110">
<g id="Ellipse 24" filter="url(#filter0_d_11_742)">
<circle cx="34" cy="18" r="16" fill="white"/>
<circle cx="34" cy="18" r="15.5" stroke="white"/>
</g>
<path id="Vector" opacity="0.7" fill-rule="evenodd" clip-rule="evenodd" d="M34 11C32.0988 11 31.8608 11.0084 31.1139 11.042C30.3691 11.0763 29.8602 11.1946 29.415 11.3675C28.9477 11.5431 28.5244 11.8185 28.1746 12.1746C27.8185 12.5244 27.5431 12.9478 27.3675 13.415C27.1946 13.8602 27.0763 14.3691 27.042 15.1139C27.0077 15.8608 27 16.0988 27 18C27 19.9012 27.0077 20.1392 27.042 20.8861C27.0763 21.6309 27.1946 22.1398 27.3675 22.585C27.5431 23.0522 27.8186 23.4755 28.1746 23.8254C28.5245 24.1814 28.9478 24.4569 29.415 24.6325C29.8602 24.8054 30.3691 24.9237 31.1139 24.958C31.8608 24.9916 32.0988 25 34 25C35.9012 25 36.1392 24.9916 36.8861 24.958C37.6309 24.9237 38.1398 24.8054 38.585 24.6325C39.0522 24.4569 39.4756 24.1815 39.8254 23.8254C40.1815 23.4756 40.4569 23.0522 40.6325 22.585C40.8054 22.1398 40.9237 21.6309 40.958 20.8861C40.9916 20.1392 41 19.9012 41 18C41 16.0988 40.9916 15.8608 40.958 15.1139C40.9237 14.3691 40.8054 13.8602 40.6325 13.415C40.4569 12.9478 40.1815 12.5244 39.8254 12.1746C39.4756 11.8185 39.0523 11.5431 38.585 11.3675C38.1398 11.1946 37.6309 11.0763 36.8861 11.042C36.1392 11.0084 35.9012 11 34 11ZM34 12.2614C35.869 12.2614 36.0902 12.2684 36.828 12.302C37.5112 12.3335 37.8815 12.4469 38.1286 12.5428C38.4548 12.6702 38.6886 12.8221 38.9336 13.0664C39.1786 13.3114 39.3298 13.5452 39.4572 13.8714C39.5524 14.1185 39.6672 14.4888 39.698 15.1713C39.7316 15.9098 39.7386 16.1303 39.7386 18C39.7386 19.869 39.7316 20.0902 39.698 20.828C39.6665 21.5112 39.5524 21.8815 39.4572 22.1286C39.345 22.4327 39.1661 22.7077 38.9336 22.9336C38.6886 23.1786 38.4548 23.3298 38.1286 23.4572C37.8815 23.5524 37.5112 23.6672 36.8287 23.698C36.0909 23.7316 35.8697 23.7386 34 23.7386C32.131 23.7386 31.9091 23.7316 31.172 23.698C30.4888 23.6665 30.1185 23.5524 29.8714 23.4572C29.5673 23.345 29.2922 23.1661 29.0664 22.9336C28.8339 22.7078 28.655 22.4327 28.5428 22.1286C28.4469 21.8815 28.3328 21.5112 28.302 20.8287C28.2684 20.0902 28.2614 19.8697 28.2614 18C28.2614 16.131 28.2684 15.9098 28.302 15.172C28.3335 14.4888 28.4469 14.1185 28.5428 13.8714C28.6702 13.5452 28.8221 13.3114 29.0664 13.0664C29.3114 12.8214 29.5452 12.6702 29.8714 12.5428C30.1185 12.4469 30.4888 12.3328 31.1713 12.302C31.9098 12.2684 32.1303 12.2614 34 12.2614ZM34 20.3331C33.3812 20.3331 32.7878 20.0873 32.3502 19.6498C31.9127 19.2122 31.6669 18.6188 31.6669 18C31.6669 17.3812 31.9127 16.7878 32.3502 16.3502C32.7878 15.9127 33.3812 15.6669 34 15.6669C34.6188 15.6669 35.2122 15.9127 35.6498 16.3502C36.0873 16.7878 36.3331 17.3812 36.3331 18C36.3331 18.6188 36.0873 19.2122 35.6498 19.6498C35.2122 20.0873 34.6188 20.3331 34 20.3331ZM34 14.4055C33.528 14.4055 33.0605 14.4985 32.6244 14.6791C32.1883 14.8598 31.7921 15.1245 31.4583 15.4583C31.1245 15.7921 30.8598 16.1883 30.6791 16.6244C30.4985 17.0605 30.4055 17.528 30.4055 18C30.4055 18.472 30.4985 18.9395 30.6791 19.3756C30.8598 19.8117 31.1245 20.2079 31.4583 20.5417C31.7921 20.8755 32.1883 21.1402 32.6244 21.3209C33.0605 21.5015 33.528 21.5945 34 21.5945C34.9533 21.5945 35.8676 21.2158 36.5417 20.5417C37.2158 19.8676 37.5945 18.9533 37.5945 18C37.5945 17.0467 37.2158 16.1324 36.5417 15.4583C35.8676 14.7842 34.9533 14.4055 34 14.4055ZM38.5766 14.2634C38.5766 14.3737 38.5549 14.4829 38.5127 14.5849C38.4704 14.6868 38.4086 14.7794 38.3306 14.8574C38.2526 14.9354 38.16 14.9972 38.0581 15.0395C37.9561 15.0817 37.8469 15.1034 37.7366 15.1034C37.6263 15.1034 37.5171 15.0817 37.4151 15.0395C37.3132 14.9972 37.2206 14.9354 37.1426 14.8574C37.0646 14.7794 37.0028 14.6868 36.9605 14.5849C36.9183 14.4829 36.8966 14.3737 36.8966 14.2634C36.8966 14.0406 36.9851 13.827 37.1426 13.6694C37.3002 13.5119 37.5138 13.4234 37.7366 13.4234C37.9594 13.4234 38.173 13.5119 38.3306 13.6694C38.4881 13.827 38.5766 14.0406 38.5766 14.2634Z" fill="#000958"/>
</g>
<defs>
<filter id="filter0_d_11_742" x="0" y="0" width="68" height="68" filterUnits="userSpaceOnUse" color-interpolation-filters="sRGB">
<feFlood flood-opacity="0" result="BackgroundImageFix"/>
<feColorMatrix in="SourceAlpha" type="matrix" values="0 0 0 0 0 0 0 0 0 0 0 0 0 0 0 0 0 0 127 0" result="hardAlpha"/>
<feMorphology radius="10" operator="erode" in="SourceAlpha" result="effect1_dropShadow_11_742"/>
<feOffset dy="16"/>
<feGaussianBlur stdDeviation="14"/>
<feComposite in2="hardAlpha" operator="out"/>
<feColorMatrix type="matrix" values="0 0 0 0 0.828597 0 0 0 0 0.519175 0 0 0 0 0.209752 0 0 0 0.33 0"/>
<feBlend mode="normal" in2="BackgroundImageFix" result="effect1_dropShadow_11_742"/>
<feBlend mode="normal" in="SourceGraphic" in2="effect1_dropShadow_11_742" result="shape"/>
</filter>
</defs>
</svg>
